<?xml version="1.0" encoding="utf-8"?>
<!-- Generator: Adobe Illustrator 16.0.0, SVG Export Plug-In . SVG Version: 6.00 Build 0)  -->
<!DOCTYPE svg PUBLIC "-//W3C//DTD SVG 1.1//EN" "http://www.w3.org/Graphics/SVG/1.1/DTD/svg11.dtd">
<svg version="1.1" id="Capa_1" xmlns="http://www.w3.org/2000/svg" xmlns:xlink="http://www.w3.org/1999/xlink" x="0px" y="0px"
	 width="60px" height="60px" viewBox="0 0 60 60" enable-background="new 0 0 60 60" xml:space="preserve">
<g id="gitHub">
	<g>
		<path fill="#009C82" d="M58.748,30.017c0,6.303-1.846,11.973-5.535,17.013c-3.688,5.042-8.438,8.528-14.244,10.466
			c-0.676,0.135-1.172,0.044-1.484-0.271c-0.313-0.312-0.475-0.699-0.475-1.146v-7.97c0-2.43-0.652-4.207-1.959-5.332
			c1.441-0.137,2.725-0.358,3.852-0.676c1.123-0.312,2.316-0.81,3.576-1.483c1.265-0.677,2.271-1.509,3.039-2.499
			c0.769-0.987,1.439-2.295,2.025-3.916c0.586-1.618,0.832-3.512,0.742-5.67c0-3.06-0.99-5.646-2.971-7.765
			c0.94-2.295,0.832-4.86-0.34-7.695c-0.675-0.225-1.688-0.09-3.037,0.405c-1.353,0.496-2.496,1.058-3.441,1.688l-1.418,0.878
			c-2.342-0.676-4.75-1.014-7.224-1.014c-2.477,0-4.906,0.338-7.291,1.014c-0.361-0.271-0.879-0.607-1.555-1.014
			c-0.675-0.405-1.732-0.898-3.172-1.483c-1.441-0.585-2.521-0.744-3.24-0.474c-1.082,2.835-1.172,5.4-0.271,7.695
			c-1.98,2.117-2.971,4.705-2.971,7.765c0,2.113,0.27,3.98,0.811,5.604c0.54,1.619,1.191,2.949,1.958,3.984
			c0.765,1.031,1.777,1.865,3.037,2.496c1.261,0.632,2.431,1.125,3.511,1.482c1.08,0.36,2.363,0.586,3.848,0.676
			c-0.989,0.901-1.598,2.207-1.822,3.916c-0.54,0.229-1.104,0.406-1.688,0.541c-0.586,0.136-1.307,0.201-2.16,0.201
			c-0.856,0-1.666-0.27-2.432-0.81c-0.766-0.541-1.462-1.326-2.093-2.363c-0.495-0.811-1.103-1.462-1.821-1.956
			c-0.722-0.496-1.352-0.812-1.892-0.947l-0.742-0.062c-0.54,0-0.899,0.045-1.08,0.135S8.541,41.676,8.587,41.9
			c0.043,0.229,0.156,0.406,0.336,0.541c0.18,0.136,0.338,0.271,0.474,0.403l0.27,0.202c0.54,0.271,1.08,0.743,1.62,1.417
			c0.54,0.679,0.945,1.33,1.215,1.959l0.338,0.878c0.359,0.945,0.922,1.713,1.688,2.297c0.764,0.586,1.597,0.969,2.498,1.146
			c0.899,0.181,1.776,0.271,2.633,0.271c0.854,0,1.554-0.046,2.093-0.137l0.877-0.202v3.375c0,1.261,0.023,1.935,0.068,2.024
			c0,0.449-0.18,0.834-0.54,1.148c-0.36,0.312-0.854,0.403-1.485,0.271c-5.807-1.937-10.555-5.425-14.246-10.466
			c-3.69-5.041-5.535-10.711-5.535-17.013c0-5.266,1.305-10.104,3.916-14.515c2.609-4.411,6.099-7.922,10.463-10.532
			c4.365-2.61,9.228-3.916,14.584-3.916c5.355,0,10.195,1.306,14.515,3.916c4.32,2.61,7.83,6.122,10.531,10.533
			C57.6,19.913,58.885,24.751,58.748,30.017z"/>
	</g>
</g>
</svg>
