<?xml version="1.0" encoding="utf-8"?>
<!-- Generator: Adobe Illustrator 16.0.0, SVG Export Plug-In . SVG Version: 6.00 Build 0)  -->
<!DOCTYPE svg PUBLIC "-//W3C//DTD SVG 1.1//EN" "http://www.w3.org/Graphics/SVG/1.1/DTD/svg11.dtd">
<svg version="1.1" id="lineman" xmlns="http://www.w3.org/2000/svg" xmlns:xlink="http://www.w3.org/1999/xlink" x="0px" y="0px"
	 width="60px" height="60px" viewBox="0 0 60 60" enable-background="new 0 0 60 60" xml:space="preserve">
<path fill="#009C82" d="M28.068,22.591c0,0.229-0.003,0.458,0.002,0.688c0.002,0.149,0.037,0.278,0.215,0.318
	c0.08,0.017,0.171,0.051,0.223,0.108c0.126,0.138,0.222,0.061,0.276-0.044c0.056-0.106,0.086-0.246-0.097-0.297l-0.194-1.294
	c-0.003-0.141,0.04-0.229,0.175-0.297c0.208-0.105,0.405-0.237,0.596-0.373c0.04-0.028,0.063-0.135,0.042-0.181
	c-0.041-0.086-0.052-0.259-0.229-0.155c-0.215,0.127-0.421,0.277-0.648,0.38c-0.304,0.138-0.4,0.358-0.363,0.673
	C28.084,22.273,28.068,22.433,28.068,22.591z"/>
<path fill="#009C82" d="M30.506,58.572c-5.232,0.033-10.113-1.247-14.692-3.795c-0.027,0.244-0.022,0.433,0.169,0.527
	c0.778,0.389,1.55,0.793,2.346,1.146c0.734,0.323,1.492,0.602,2.248,0.873c0.645,0.231,1.296,0.45,1.957,0.631
	c0.605,0.166,1.224,0.28,1.84,0.405c0.642,0.129,1.285,0.259,1.933,0.357c0.55,0.084,1.105,0.139,1.662,0.18
	c0.628,0.047,1.259,0.082,1.889,0.09c0.478,0.007,0.958-0.027,1.437-0.06c0.871-0.058,1.742-0.114,2.613-0.192
	c0.535-0.049,1.07-0.133,1.605-0.207c0.193-0.026,0.387-0.063,0.577-0.107c0.354-0.081,0.707-0.169,1.062-0.255
	c0.431-0.104,0.863-0.194,1.287-0.315c0.457-0.134,0.908-0.287,1.355-0.445c0.572-0.202,1.146-0.402,1.705-0.631
	c0.523-0.213,1.037-0.447,1.544-0.696c0.751-0.37,1.494-0.763,2.257-1.151c-0.078-0.148-0.135-0.256-0.191-0.365
	C40.581,57.173,35.734,58.537,30.506,58.572z"/>
<path fill="#009C82" d="M29.797,24.152c0.292,0.114,0.592,0.212,0.879,0.337c0.172,0.074,0.315,0.089,0.481-0.009
	c0.261-0.155,0.534-0.288,0.795-0.441c0.097-0.056,0.248-0.145,0.248-0.217c-0.005-0.249,0.172-0.265,0.327-0.348
	c0.173-0.092,0.443-0.088,0.438-0.404c-0.008-0.49,0.008-0.979,0.021-1.469c0.004-0.158-0.051-0.264-0.162-0.386
	c-0.379-0.415-0.869-0.732-1.122-1.258c-0.015-0.032-0.071-0.046-0.132-0.081c-0.008,0.077-0.014,0.129-0.018,0.181
	c-0.064-0.062-0.129-0.122-0.193-0.184c-0.021,0.018-0.041,0.035-0.062,0.052c0.11,0.267,0.227,0.531,0.33,0.799
	c0.077,0.199,0.193,0.4,0.201,0.604c0.023,0.719,0.012,1.439,0.004,2.158c-0.002,0.072-0.059,0.17-0.12,0.21
	c-0.233,0.155-0.476,0.296-0.722,0.427c-0.053,0.028-0.146,0.007-0.211-0.017c-0.274-0.102-0.542-0.222-0.817-0.316
	c-0.058-0.019-0.143,0.042-0.214,0.067c-0.133-0.014-0.238,0.021-0.168,0.174C29.607,24.093,29.719,24.122,29.797,24.152z"/>
<path fill="#009C82" d="M28.561,26.25c-0.109,0.024-0.272,0.053-0.302,0.125c-0.036,0.083,0.047,0.218,0.07,0.298
	c0.5-0.081,0.951-0.157,1.404-0.228c0.767-0.121,1.476,0.192,2.212,0.305c0.201,0.032,0.432-0.016,0.633-0.076
	c0.107-0.032,0.184-0.171,0.312-0.302c-0.188-0.045-0.326-0.127-0.412-0.09l-2.076-0.219C29.781,26.006,29.168,26.119,28.561,26.25z
	"/>
<path fill="#009C82" d="M59.436,26.527c-0.088-0.574-0.139-1.152-0.211-1.728c-0.027-0.217-0.066-0.434-0.113-0.648
	c-0.078-0.364-0.17-0.725-0.256-1.087c-0.104-0.438-0.183-0.882-0.314-1.31c-0.223-0.726-0.464-1.447-0.729-2.158
	c-0.278-0.746-0.551-1.499-0.902-2.211c-0.526-1.072-1.079-2.138-1.699-3.158c-0.925-1.518-2.005-2.929-3.206-4.241
	c-0.909-0.996-1.879-1.928-2.916-2.792c-0.965-0.803-1.964-1.559-3.028-2.222c-0.643-0.398-1.291-0.787-1.957-1.142
	c-0.737-0.393-1.492-0.755-2.254-1.104c-0.488-0.224-0.992-0.415-1.498-0.595c-0.521-0.186-1.052-0.342-1.58-0.508
	c-0.381-0.12-0.76-0.25-1.146-0.347c-0.477-0.118-0.956-0.209-1.436-0.305c-0.61-0.123-1.222-0.255-1.836-0.351
	c-0.552-0.085-1.105-0.135-1.662-0.184c-0.493-0.044-0.988-0.089-1.484-0.09c-0.764-0.001-1.529,0.019-2.291,0.06
	c-0.801,0.044-1.6,0.114-2.397,0.191c-0.522,0.051-1.04,0.134-1.56,0.207c-0.185,0.027-0.369,0.063-0.551,0.105
	C24.053,0.991,23.7,1.08,23.346,1.167C22.925,1.27,22.5,1.36,22.084,1.482c-0.457,0.133-0.908,0.291-1.358,0.445
	c-0.479,0.164-0.964,0.315-1.43,0.511c-0.689,0.29-1.375,0.593-2.042,0.929c-0.739,0.372-1.476,0.756-2.176,1.194
	c-0.862,0.54-1.714,1.103-2.52,1.722c-0.928,0.712-1.812,1.483-2.69,2.257C9.44,8.916,9.065,9.349,8.685,9.771
	c-0.528,0.584-1.068,1.162-1.551,1.783c-0.814,1.043-1.569,2.13-2.236,3.276c-0.772,1.325-1.467,2.686-2.001,4.125
	c-0.285,0.769-0.58,1.535-0.824,2.317c-0.226,0.724-0.408,1.464-0.572,2.205c-0.153,0.692-0.27,1.394-0.379,2.095
	c-0.084,0.543-0.146,1.09-0.189,1.638c-0.051,0.66-0.099,1.322-0.1,1.983c-0.001,0.803,0.042,1.606,0.079,2.409
	c0.024,0.526,0.067,1.054,0.111,1.578c0.021,0.258,0.058,0.514,0.102,0.77c0.082,0.476,0.172,0.951,0.262,1.427
	c0.069,0.366,0.13,0.733,0.217,1.097c0.103,0.428,0.229,0.85,0.349,1.272c0.133,0.467,0.255,0.938,0.412,1.396
	c0.198,0.58,0.435,1.146,0.64,1.724c0.128,0.36,0.17,0.38,0.478,0.135c0.012-0.01,0.026-0.017,0.04-0.024
	c1.018-0.707,2.031-1.42,3.056-2.115c0.955-0.649,1.924-1.278,2.879-1.928c0.203-0.138,0.428-0.291,0.548-0.492
	c0.364-0.614,0.869-1.082,1.465-1.437c0.408-0.241,0.868-0.405,1.319-0.562c0.247-0.086,0.524-0.099,0.79-0.106
	c0.205-0.007,0.256,0.121,0.162,0.302c-0.099,0.188-0.209,0.377-0.279,0.576c-0.243,0.707-0.333,1.449-0.37,2.186
	c-0.035,0.705,0.035,1.42,0.09,2.127c0.029,0.371,0.108,0.742,0.196,1.106c0.099,0.411,0.222,0.817,0.354,1.222
	c0.16,0.485,0.296,0.987,0.521,1.445c0.445,0.906,0.939,1.789,1.424,2.676c0.065,0.119,0.062,0.156-0.055,0.23
	c-1.136,0.727-2.302,1.4-3.538,1.939c-0.283,0.121-0.62,0.387-0.956,0.055c-0.003-0.004-0.015,0.004-0.034,0.01
	c-0.032,0.219-0.102,0.471,0.166,0.583c0.153,0.065,0.372,0.097,0.519,0.037c0.586-0.237,1.156-0.515,1.747-0.784
	c0.263,0.374,0.53,0.792,0.837,1.175c0.151,0.188,0.125,0.315-0.005,0.474c-0.032,0.039-0.057,0.084-0.09,0.135
	c-0.298-0.413-0.571-0.791-0.824-1.141c-0.246,0.121-0.44,0.231-0.645,0.314c-0.481,0.193-0.933,0.461-1.49,0.438
	c-0.608-0.027-1.016-0.504-1.083-1.035c-0.047-0.377,0.139-0.656,0.403-0.881c0.125-0.107,0.103-0.205,0.056-0.312
	c-0.068-0.159-0.166-0.307-0.229-0.467c-0.271-0.684-0.559-1.361-0.794-2.059c-0.173-0.511-0.288-1.043-0.403-1.57
	c-0.107-0.495-0.23-0.995-0.256-1.498c-0.064-1.256-0.092-2.514,0.357-3.723c0.051-0.139,0.08-0.285,0.132-0.477
	c-0.11,0.042-0.164,0.053-0.206,0.08c-0.722,0.482-1.446,0.963-2.161,1.455c-1.102,0.759-2.199,1.523-3.293,2.291
	c-0.302,0.211-0.304,0.227-0.15,0.541c0.647,1.326,1.32,2.637,2.127,3.879c0.861,1.325,1.802,2.587,2.875,3.74
	c0.807,0.869,1.655,1.707,2.551,2.479l2.853,2.191c0.422,0.312,0.88,0.575,1.378,0.897c-0.078-0.883-0.149-1.697-0.222-2.524
	c0.396,0,0.764,0.071,1.091-0.015c0.674-0.181,1.09-0.668,1.281-1.341c0.043-0.149,0.017-0.382,0.108-0.44
	c0.117-0.073,0.322-0.012,0.489-0.004c0.7,0.028,1.401,0.062,2.101,0.093c0.702,0.032,1.403,0.062,2.104,0.097
	c0.621,0.029,1.242,0.062,1.863,0.094c0.668,0.033,1.336,0.066,2.006,0.096c0.45,0.021,0.903,0.006,1.349,0.06
	c0.189,0.022,0.241,0.013,0.245-0.173c0.029-1.01,0.056-2.018,0.099-3.025c0.021-0.511,0.067-1.021,0.11-1.533
	c0.021-0.24,0.05-0.483,0.1-0.722c0.11-0.53,0.228-1.062,0.361-1.587c0.076-0.3,0.189-0.592,0.288-0.896
	c0.323,0.185,0.338,0.24,0.261,0.461c-0.127,0.363-0.262,0.728-0.342,1.103c-0.12,0.556-0.22,1.12-0.283,1.687
	c-0.088,0.798-0.156,1.599-0.194,2.399c-0.034,0.688-0.015,1.377-0.021,2.065c0,0.083,0,0.167,0,0.232
	c0.416,0.043,0.797,0.092,1.181,0.117c1.013,0.069,2.025,0.128,3.039,0.194c0.432,0.026,0.861,0.061,1.295,0.093
	c0.854,0.062,1.711,0.129,2.565,0.189c0.599,0.045,1.194,0.082,1.793,0.123c0.022,0.002,0.046,0.004,0.069,0.006
	c0.691,0.084,1.383,0.172,2.074,0.252c0.373,0.044,0.75,0.066,1.125,0.113c0.24,0.029,0.476,0.084,0.729,0.131
	c-0.006,0.092,0.019,0.199-0.021,0.275c-0.16,0.311-0.032,0.615,0.045,0.897c0.188,0.687,0.951,1.239,1.669,1.237
	c0.502,0,0.948-0.168,1.305-0.541c0.093-0.096,0.168-0.164,0.251,0.027c0.07,0.156,0.193,0.289,0.309,0.456
	c0.431-0.291,0.834-0.565,1.238-0.835c1.457-0.971,2.762-2.123,4.021-3.332c0.497-0.479,0.938-1.02,1.401-1.535
	c1.028-1.146,1.92-2.396,2.746-3.697c0.692-1.095,1.276-2.246,1.832-3.41c0.041-0.082,0.041-0.248-0.016-0.305
	c-0.5-0.504-0.898-1.106-1.504-1.51c-1.055-0.701-2.102-1.414-3.149-2.121c-0.204-0.136-0.409-0.271-0.616-0.408
	c0.117-0.127,0.142-0.358,0.362-0.226c0.169,0.101,0.325,0.22,0.487,0.329c0.956,0.645,1.919,1.277,2.865,1.934
	c0.371,0.258,0.721,0.555,1.053,0.859c0.261,0.24,0.479,0.525,0.725,0.781c0.029,0.029,0.168,0.018,0.182-0.012
	c0.108-0.228,0.209-0.459,0.293-0.695c0.203-0.582,0.406-1.163,0.594-1.748c0.191-0.594,0.385-1.189,0.541-1.793
	c0.13-0.495,0.215-1.004,0.312-1.508c0.123-0.65,0.258-1.302,0.348-1.957c0.09-0.646,0.143-1.297,0.183-1.947
	c0.033-0.529,0.031-1.061,0.033-1.59C59.621,28.803,59.609,27.662,59.436,26.527z M21.375,12.996
	c0.007-0.117,0.035-0.233,0.049-0.349c0.092-0.716,0.191-1.431,0.271-2.147c0.144-1.288,0.813-2.307,1.642-3.246
	c0.675-0.766,1.467-1.389,2.326-1.938c0.225-0.143,0.387-0.381,0.603-0.543c0.324-0.243,0.697-0.22,1.071-0.134
	c0.053,0.012,0.107,0.042,0.158,0.036c0.514-0.059,1.027-0.117,1.537-0.195c0.077-0.012,0.152-0.118,0.205-0.196
	c0.081-0.122,0.172-0.175,0.326-0.171c0.387,0.012,0.774-0.004,1.162,0.01c0.102,0.004,0.229,0.061,0.283,0.137
	c0.137,0.185,0.301,0.232,0.516,0.249c0.392,0.03,0.776,0.106,1.166,0.154c0.08,0.011,0.168-0.003,0.248-0.024
	c0.506-0.129,1.104-0.037,1.426,0.45c0.097,0.148,0.279,0.245,0.437,0.347c1.438,0.95,2.658,2.106,3.407,3.688
	c0.236,0.503,0.37,1.046,0.425,1.609c0.06,0.622,0.168,1.24,0.247,1.86c0.023,0.172,0.016,0.348,0.031,0.521
	c0.02,0.257,0.056,0.514,0.064,0.771c0.004,0.063-0.055,0.17-0.105,0.187c-0.105,0.031-0.243,0.041-0.284-0.115
	c-0.024-0.09-0.03-0.186-0.038-0.279c-0.041-0.565-0.061-1.132-0.126-1.694c-0.075-0.661-0.135-1.33-0.299-1.972
	c-0.183-0.72-0.552-1.371-1.017-1.959c-0.808-1.02-1.768-1.866-2.894-2.522c-0.056-0.033-0.11-0.087-0.137-0.146
	c-0.228-0.464-0.687-0.44-1.015-0.392c-0.158,0.024-0.322,0.06-0.479,0.044c-0.438-0.042-0.869-0.123-1.307-0.158
	c-0.187-0.016-0.338-0.065-0.437-0.218c-0.085-0.134-0.188-0.178-0.343-0.167c-0.165,0.012-0.333,0.004-0.499,0.003
	c-0.238-0.002-0.486-0.046-0.614,0.249c-0.026,0.06-0.141,0.104-0.22,0.115c-0.334,0.045-0.672,0.072-1.006,0.111
	c-0.154,0.018-0.308,0.062-0.462,0.067c-0.153,0.005-0.308-0.012-0.459-0.038c-0.318-0.056-0.659-0.101-0.868,0.184
	c-0.28,0.381-0.691,0.567-1.053,0.828c-1.156,0.836-2.149,1.822-2.809,3.097c-0.219,0.425-0.381,0.887-0.425,1.386
	c-0.072,0.827-0.192,1.65-0.288,2.475c-0.031,0.265-0.062,0.53-0.075,0.796c-0.017,0.325-0.009,0.325-0.398,0.301
	C21.336,13.701,21.352,13.348,21.375,12.996z M38.986,14.477c0,0.592,0,1.178,0,1.777c-0.248,0-0.479,0-0.742,0
	c0-0.603,0-1.183,0-1.777C38.493,14.477,38.732,14.477,38.986,14.477z M38.04,16.263c-0.522,0.094-1.021,0.19-1.522,0.271
	c-0.293,0.048-0.588,0.087-0.886,0.105c-0.763,0.046-1.528,0.087-2.291,0.115c-0.969,0.035-1.938,0.081-2.907,0.075
	c-1.073-0.007-2.145-0.055-3.217-0.108c-0.809-0.04-1.616-0.108-2.424-0.176c-0.641-0.054-1.282-0.123-1.923-0.19
	c-0.187-0.02-0.372-0.051-0.556-0.088c-0.041-0.008-0.072-0.061-0.108-0.093c0.038-0.029,0.075-0.08,0.116-0.085
	c0.093-0.011,0.189-0.007,0.284,0.004c0.74,0.085,1.48,0.174,2.22,0.262c0.024,0.003,0.048,0.004,0.071,0.005
	c0.763,0.042,1.525,0.09,2.29,0.125c0.858,0.039,1.718,0.067,2.577,0.097c0.708,0.024,1.417,0.065,2.125,0.059
	c0.844-0.007,1.688-0.044,2.532-0.095c0.642-0.04,1.284-0.107,1.921-0.191c0.487-0.063,0.969-0.176,1.453-0.255
	C37.895,16.083,38.086,15.998,38.04,16.263z M21.237,14.477c0.23,0,0.447,0,0.677,0c0,0.57,0,1.127,0,1.706
	c-0.222,0-0.438,0-0.677,0C21.237,15.624,21.237,15.061,21.237,14.477z M20.76,15.815c0.029,0.18,0.045,0.331-0.062,0.508
	c-0.331,0.547-0.35,0.697,0.137,1.248c0.392,0.443,0.904,0.783,1.376,1.151c0.096,0.075,0.25,0.083,0.38,0.104
	c0.665,0.105,1.328,0.223,1.995,0.301c1.007,0.117,2.015,0.235,3.025,0.296c1.109,0.067,2.223,0.079,3.333,0.099
	c0.541,0.01,1.084,0,1.625-0.031c0.572-0.033,1.142-0.099,1.713-0.155c0.312-0.031,0.623-0.069,0.936-0.107
	c0.553-0.068,1.104-0.135,1.654-0.211c0.186-0.025,0.367-0.078,0.566-0.122c-0.008-0.03-0.021-0.074-0.031-0.117
	c0.025-0.011,0.041-0.024,0.052-0.022c0.618,0.115,1.017-0.301,1.431-0.629c0.291-0.231,0.538-0.529,0.76-0.83
	c0.238-0.318,0.168-0.73-0.103-0.998c-0.157-0.157-0.188-0.298-0.146-0.514c0.332,0.049,0.519,0.281,0.639,0.552
	c0.271,0.628,0.107,1.031-0.327,1.539c-0.19,0.221-0.467,0.376-0.629,0.612c-0.093,0.139-0.047,0.379-0.049,0.574
	c-0.005,0.452,0.016,0.903-0.002,1.354c-0.011,0.23-0.056,0.465-0.128,0.685c-0.121,0.367-0.328,0.696-0.66,0.901
	c-0.145,0.089-0.352,0.074-0.575,0.113c-0.024,0.061-0.071,0.169-0.124,0.297c0.12,0.026,0.203,0.044,0.303,0.066
	c0.004,0.101,0.014,0.202,0.014,0.303c0,1.733-0.004,3.466,0.004,5.199c0.002,0.312-0.021,0.601-0.191,0.876
	c-0.145,0.237-0.253,0.497-0.385,0.743c-0.018,0.037-0.075,0.052-0.113,0.077c-0.023-0.037-0.059-0.071-0.062-0.11
	c-0.039-0.344-0.066-0.688-0.11-1.031c-0.083-0.629-0.178-1.257-0.261-1.886c-0.045-0.334-0.075-0.671-0.116-1.006
	c-0.024-0.218-0.042-0.438-0.101-0.648c-0.018-0.067-0.146-0.136-0.229-0.149c-0.332-0.052-0.67-0.076-1.004-0.122
	c-0.597-0.083-1.192-0.178-1.789-0.259c-0.372-0.051-0.745-0.084-1.118-0.126c-0.004,0.021-0.007,0.042-0.011,0.063
	c1.133,0.299,2.265,0.599,3.405,0.901c0,0.536,0,1.049,0,1.563c0,1.052-0.004,2.105,0.005,3.157
	c0.002,0.207-0.054,0.318-0.251,0.432c-0.631,0.366-1.234,0.774-1.85,1.167c-0.135,0.085-0.246,0.141-0.439,0.062
	c-0.434-0.172-0.901-0.256-1.342-0.42c-0.102-0.037-0.17-0.236-0.203-0.375c-0.135-0.583-0.256-1.168-0.372-1.755
	c-0.058-0.282-0.093-0.566-0.144-0.88c0.316,0,0.59,0,0.875,0c0-0.138,0-0.25,0-0.374c-1.013,0-2.005,0-3.021,0
	c-0.007,0.115-0.015,0.222-0.022,0.357c0.255,0,0.495,0,0.788,0c-0.048,0.297-0.083,0.562-0.135,0.824
	c-0.041,0.205-0.112,0.403-0.155,0.607c-0.104,0.487-0.194,0.979-0.3,1.463c-0.013,0.059-0.087,0.122-0.148,0.146
	c-0.547,0.215-1.097,0.424-1.648,0.629c-0.052,0.02-0.127,0.029-0.174,0.007c-0.825-0.397-1.648-0.798-2.465-1.212
	c-0.062-0.03-0.105-0.158-0.106-0.241c-0.007-1.527-0.005-3.055-0.005-4.583c0-0.04,0-0.079,0-0.119c0-0.498-0.003-0.509,0.449-0.63
	c0.338-0.091,0.688-0.139,1.028-0.218c0.339-0.079,0.672-0.181,1.01-0.26c0.375-0.087,0.753-0.161,1.13-0.24
	c-0.004-0.026-0.008-0.052-0.012-0.077c-1.391,0.185-2.783,0.37-4.169,0.554c-0.196,1.524-0.388,3.007-0.579,4.49
	c-0.02,0.005-0.039,0.009-0.059,0.014c-0.139-0.268-0.291-0.53-0.411-0.805c-0.066-0.152-0.107-0.328-0.108-0.494
	c-0.007-1.756-0.005-3.513-0.003-5.27c0-0.12-0.061-0.279,0.146-0.313c0.015-0.002,0.03-0.098,0.017-0.141
	c-0.022-0.069-0.068-0.132-0.11-0.208c-0.065,0.006-0.145-0.007-0.204,0.021c-0.493,0.239-1.082-0.117-1.278-0.619
	c-0.194-0.498-0.195-1.008-0.201-1.522c-0.004-0.332,0.01-0.663,0.017-0.995c0-0.007-0.001-0.017,0.002-0.023
	c0.224-0.424-0.148-0.557-0.375-0.752c-0.378-0.325-0.706-0.693-0.838-1.177C20.002,16.67,20.236,16.078,20.76,15.815z
	 M14.829,47.238c0.314-0.215,0.636-0.422,0.921-0.672c0.152-0.133,0.244-0.342,0.342-0.526c0.03-0.056,0.015-0.161-0.021-0.22
	c-0.167-0.277-0.348-0.547-0.524-0.819c0.199-0.125,0.645-0.056,0.858,0.114c0.252,0.199,0.448,0.443,0.527,0.75
	c0.093,0.359-0.099,0.643-0.325,0.896c-0.304,0.346-0.701,0.559-1.106,0.756c-0.181,0.088-0.326,0.137-0.167,0.39
	c0.146,0.229,0.217,0.507,0.342,0.752c0.057,0.108,0.083,0.194-0.036,0.252c-0.122,0.057-0.277,0.09-0.35-0.062
	c-0.209-0.434-0.404-0.871-0.598-1.312C14.632,47.396,14.713,47.316,14.829,47.238z M15.837,52.292
	c-0.971,0.006-1.606-0.769-1.608-1.593c-0.001-0.816,0.642-1.586,1.629-1.594c0.879-0.01,1.596,0.793,1.596,1.593
	C17.454,51.502,16.758,52.339,15.837,52.292z M17.231,33.098c-0.828,0.365-1.639,0.769-2.454,1.159
	c-0.228,0.109-0.447,0.236-0.682,0.363c0.019-0.181,0.033-0.315,0.05-0.478c0.578-0.289,1.175-0.609,1.792-0.89
	c0.661-0.3,1.331-0.584,2.012-0.831c0.521-0.188,1.061-0.33,1.601-0.455c0.224-0.053,0.471-0.009,0.707-0.009
	c-0.027,0.301-0.205,0.36-0.485,0.378c-0.337,0.021-0.677,0.104-1.001,0.206C18.25,32.706,17.729,32.879,17.231,33.098z
	 M27.729,42.212c-0.137-0.083-0.278-0.163-0.412-0.251c-1.288-0.845-2.576-1.691-3.865-2.535c-0.056-0.037-0.142-0.066-0.205-0.053
	c-0.538,0.116-1.074,0.241-1.609,0.37c-0.17,0.042-0.308,0.116-0.409,0.292c-0.416,0.725-0.828,1.455-1.297,2.146
	c-0.201,0.297-0.53,0.51-0.814,0.746c-0.229,0.189-0.475,0.357-0.715,0.531c-0.049,0.036-0.108,0.059-0.178,0.096
	c-0.044-0.412-0.077-0.787-0.125-1.16c-0.083-0.651-0.177-1.303-0.263-1.955c-0.04-0.304-0.062-0.609-0.105-0.912
	c-0.061-0.43,0.192-0.764,0.331-1.131c0.225-0.595,0.471-1.182,0.713-1.77c0.204-0.493,0.419-0.982,0.624-1.477
	c0.205-0.496,0.402-0.994,0.604-1.491c0.168-0.417,0.296-0.858,0.519-1.245c0.17-0.294,0.449-0.529,0.699-0.771
	c0.54-0.521,1.091-1.031,1.638-1.544c0.015-0.014,0.034-0.023,0.111-0.078c-0.043,0.141-0.076,0.222-0.093,0.306
	c-0.073,0.375-0.139,0.751-0.213,1.126c-0.082,0.411-0.169,0.821-0.254,1.231c-0.039,0.191-0.076,0.383-0.114,0.574
	c-0.092,0.465-0.196,0.93-0.269,1.396c-0.015,0.098,0.067,0.229,0.138,0.32c0.629,0.808,1.269,1.606,1.897,2.416
	c0.746,0.959,1.48,1.928,2.225,2.89c0.487,0.628,0.985,1.247,1.477,1.872C27.752,42.174,27.74,42.193,27.729,42.212z M30.252,39.628
	c-0.846-0.052-1.696-0.097-2.537-0.198c-0.608-0.076-1.207-0.236-1.808-0.369c-0.067-0.016-0.137-0.074-0.181-0.133
	c-0.774-0.994-1.547-1.99-2.316-2.99c-0.047-0.062-0.084-0.151-0.084-0.229c0-1.234-0.003-2.468,0.015-3.702
	c0.008-0.554,0.063-1.108,0.098-1.663c0.014-0.003,0.029-0.006,0.044-0.01c0.268,0.55,0.517,1.113,0.816,1.646
	c0.102,0.182,0.321,0.313,0.511,0.431c0.926,0.571,1.857,1.135,2.793,1.69c0.125,0.073,0.29,0.116,0.436,0.117
	c1.646,0.01,3.291,0.004,4.938,0.01c0.188,0,0.322-0.059,0.467-0.182c0.847-0.706,1.705-1.398,2.56-2.097
	c0.259-0.211,0.515-0.427,0.78-0.626c0.281-0.211,0.35-0.547,0.506-0.829c0.174-0.316,0.318-0.651,0.48-0.975
	c0.027-0.055,0.08-0.099,0.16-0.195c0.01,0.125,0.016,0.183,0.021,0.243c0.036,0.525,0.002,1.069,0.129,1.573
	c0.134,0.536-0.147,0.836-0.427,1.18c-0.608,0.748-1.209,1.5-1.815,2.248c-0.476,0.584-0.956,1.16-1.431,1.744
	c-0.758,0.934-1.51,1.869-2.264,2.805c-0.096,0.115-0.197,0.228-0.297,0.341c-0.107,0.12-0.232,0.183-0.406,0.177
	C31.045,39.623,30.646,39.65,30.252,39.628z M39.557,41.084c-0.332,0.873-0.679,1.738-1.015,2.607
	c-0.045,0.115-0.079,0.234-0.114,0.353c-0.082,0.274-0.283,0.397-0.591,0.442c0-0.48-0.004-0.932,0.002-1.381
	c0.002-0.244-0.077-0.438-0.239-0.631c-0.504-0.601-0.97-1.229-1.474-1.828c-0.138-0.162-0.356-0.256-0.543-0.375
	c-0.423-0.271-0.854-0.523-1.267-0.809c-0.262-0.182-0.48-0.012-0.717,0.027c-0.744,0.124-1.187,0.712-1.73,1.139
	c-0.374,0.292-0.732,0.602-1.143,0.871c0.035-0.059,0.066-0.124,0.108-0.177c0.754-0.923,1.511-1.843,2.265-2.767
	c0.846-1.037,1.687-2.076,2.527-3.117c0.807-0.996,1.611-1.998,2.42-2.994c0.496-0.614,0.994-1.229,1.496-1.836
	c0.12-0.145,0.041-0.261-0.018-0.384c-0.139-0.292-0.285-0.579-0.424-0.869c-0.021-0.045-0.014-0.104,0.029-0.188
	c0.191,0.204,0.387,0.406,0.571,0.614c0.425,0.475,0.845,0.952,1.264,1.432c0.484,0.556,0.96,1.117,1.456,1.663
	c0.131,0.146,0.123,0.293,0.069,0.438c-0.33,0.871-0.677,1.737-1.011,2.608c-0.352,0.914-0.698,1.828-1.041,2.746
	C40.143,39.473,39.859,40.282,39.557,41.084z M43.861,54.527c-0.939-0.025-1.575-0.641-1.605-1.598
	c-0.025-0.826,0.635-1.601,1.607-1.619c0.857-0.02,1.65,0.766,1.602,1.615C45.475,53.879,44.674,54.549,43.861,54.527z
	 M47.58,49.458c-0.168,0.362-0.484,0.506-0.828,0.521c-0.438,0.021-0.877-0.045-1.314-0.072c-0.078-0.006-0.156-0.01-0.268-0.014
	c-0.104,0.479-0.205,0.955-0.312,1.469c-0.135-0.055-0.271-0.107-0.403-0.161c0.051-0.204,0.103-0.39,0.142-0.578
	c0.073-0.374,0.141-0.749,0.204-1.125c0.023-0.138,0.095-0.183,0.229-0.179c0.34,0.01,0.68,0.017,1.02,0.014
	c0.35-0.004,0.674-0.061,0.867-0.412c0.029-0.056,0.15-0.061,0.247-0.096c0.036-0.231,0.077-0.482,0.123-0.764
	c0.2,0.174,0.334,0.334,0.368,0.586C47.693,48.932,47.703,49.191,47.58,49.458z M51.316,37.324
	c-0.555,0.988-1.133,1.965-1.662,2.967c-0.473,0.895-0.912,1.805-1.319,2.729c-0.334,0.764-0.614,1.551-0.89,2.34
	c-0.207,0.604-0.377,1.222-0.545,1.84c-0.065,0.246-0.08,0.51-0.112,0.767c-0.033,0.265-0.038,0.534-0.101,0.791
	c-0.019,0.077-0.181,0.162-0.281,0.169c-0.354,0.023-0.713,0.04-1.066,0.014c-0.626-0.047-1.252-0.101-1.871-0.2
	c-0.438-0.071-0.865-0.229-1.3-0.335c-0.155-0.038-0.178-0.108-0.144-0.252c0.022-0.104,0.004-0.217,0.004-0.357
	c-0.146,0.018-0.299-0.001-0.416,0.057c-0.18,0.092-0.362,0.205-0.35,0.465c0.012,0.246,0.182,0.373,0.365,0.433
	c0.396,0.124,0.811,0.208,1.217,0.298c0.223,0.051,0.448,0.077,0.693,0.119c0,0.626,0,1.27,0,1.945
	c-0.124,0.046-0.264,0.094-0.436,0.154c0-0.179,0-0.311,0-0.439c0-0.285,0.002-0.57,0.002-0.855c0-0.336-0.004-0.312-0.342-0.367
	c-0.35-0.057-0.695-0.153-1.039-0.248c-0.213-0.061-0.438-0.113-0.621-0.228c-0.723-0.442-0.78-1.442-0.088-1.907
	c0.152-0.101,0.361-0.131,0.549-0.166c0.213-0.039,0.434-0.047,0.623-0.064c0.145-0.604,0.274-1.162,0.406-1.721
	c0.104-0.438,0.188-0.881,0.309-1.312c0.162-0.566,0.349-1.129,0.535-1.689c0.154-0.465,0.312-0.93,0.494-1.384
	c0.234-0.579,0.492-1.147,0.742-1.721c0.362-0.833,0.812-1.621,1.357-2.345c0.412-0.547,0.896-1.041,1.35-1.559
	c0.033-0.037,0.057-0.083,0.087-0.128c-1.46-0.76-2.938-1.412-4.509-1.871c0.009-0.062,0.021-0.12,0.027-0.18
	c0.007-0.054,0.009-0.106,0.015-0.192c0.176,0.041,0.345,0.062,0.498,0.123c1.009,0.4,2.017,0.799,3.015,1.221
	c0.481,0.201,0.938,0.463,1.414,0.681c0.172,0.078,0.365,0.128,0.553,0.153c0.779,0.104,1.48,0.387,2.104,0.871
	c0.389,0.302,0.641,0.699,0.818,1.146C51.43,37.143,51.359,37.249,51.316,37.324z"/>
</svg>
