<?xml version="1.0" encoding="UTF-8"?>
<!DOCTYPE svg PUBLIC "-//W3C//DTD SVG 1.1//EN" "http://www.w3.org/Graphics/SVG/1.1/DTD/svg11.dtd">
<svg version="1.1" xmlns="http://www.w3.org/2000/svg" xmlns:xlink="http://www.w3.org/1999/xlink" x="0px" y="0px" width="311.976" height="310.5" viewBox="0, 0, 311.976, 310.5">
  <g id="Background">
    <rect x="0" y="0" width="311.976" height="310.5" fill="#000000" fill-opacity="0"/>
  </g>
  <g id="Layer 2"/>
  <g id="Layer 1">
    <g>
      <path d="M227.434,275.345 C212.139,268.657 75.984,263.689 75.984,263.689 L78.891,287.976 C101.579,301.04 128.095,308.515 156.156,308.515 C185.589,308.515 213.1,300.291 236.521,286.019 C231.321,276.741 227.434,275.345 227.434,275.345 z" fill="#FFFFFF"/>
      <path d="M227.434,275.345 C212.139,268.657 75.984,263.689 75.984,263.689 L78.891,287.976 C101.579,301.04 128.095,308.515 156.156,308.515 C185.589,308.515 213.1,300.291 236.521,286.019 C231.321,276.741 227.434,275.345 227.434,275.345 z" fill-opacity="0" stroke="#000000" stroke-width="2" stroke-miterlimit="10"/>
    </g>
    <path d="M103.529,167.583 C103.529,167.583 193.273,165.339 221.319,172.443 C249.364,179.547 290.871,210.585 290.871,210.585 L297.321,217.76 C305.667,198.75 310.315,177.749 310.315,155.657 C310.315,70.242 241.073,1 155.657,1 C70.242,1 1,70.242 1,155.657 C1,177.22 5.416,197.753 13.388,216.401 C31.546,203.244 83.793,166.749 103.529,167.583 z" fill="#000000"/>
    <g>
      <path d="M114.929,167.887 C108.161,167.98 104.028,168.082 104.029,168.083 C84.293,167.249 32.046,203.744 13.888,216.901 C27.12,247.851 50.155,273.612 79.092,290.275 L76.985,265.988 C76.985,265.988 212.14,270.958 227.435,277.645 C227.435,277.645 231.322,279.041 236.522,288.319 C263.491,271.885 285.017,247.422 297.821,218.259 L291.371,211.084 C291.371,211.084 249.864,180.047 221.819,172.942 C201.32,167.75 147.86,167.55 120.573,167.82" fill="#000000"/>
      <path d="M114.929,167.887 C108.161,167.98 104.028,168.082 104.029,168.083 C84.293,167.249 32.046,203.744 13.888,216.901 C27.12,247.851 50.155,273.612 79.092,290.275 L76.985,265.988 C76.985,265.988 212.14,270.958 227.435,277.645 C227.435,277.645 231.322,279.041 236.522,288.319 C263.491,271.885 285.017,247.422 297.821,218.259 L291.371,211.084 C291.371,211.084 249.864,180.047 221.819,172.942 C201.32,167.75 147.86,167.55 120.573,167.82" fill-opacity="0" stroke="#FFFFFF" stroke-width="2" stroke-miterlimit="10"/>
    </g>
    <g>
      <path d="M119.36,146.894 L118.423,197.998 C118.423,197.998 128.708,211.459 175.824,207.346 C222.94,203.233 199.014,180.42 199.014,180.42 L196.313,150.237 L119.36,146.894 z" fill="#FFFFFF"/>
      <path d="M119.36,146.894 L118.423,197.998 C118.423,197.998 128.708,211.459 175.824,207.346 C222.94,203.233 199.014,180.42 199.014,180.42 L196.313,150.237 L119.36,146.894 z" fill-opacity="0" stroke="#000000" stroke-width="1" stroke-miterlimit="10"/>
    </g>
    <g>
      <path d="M194.595,235.017 L199.014,233.148 L221.818,172.944 L196.86,144.525 L203.991,159.361 L149.275,226.79 L170.762,208.841 L175.824,207.345 L185.546,213.328 L194.595,224.546 z" fill="#FFFFFF"/>
      <path d="M194.595,235.017 L199.014,233.148 L221.818,172.944 L196.86,144.525 L203.991,159.361 L149.275,226.79 L170.762,208.841 L175.824,207.345 L185.546,213.328 L194.595,224.546 z" fill-opacity="0" stroke="#000000" stroke-width="2" stroke-miterlimit="10"/>
    </g>
    <path d="M223.664,260.325 C223.664,260.325 222.382,260.513 215.467,258.716 C208.55,256.919 208.794,249.706 212.734,247.491 C216.673,245.278 245.416,246.719 247.211,254.716 C249.713,265.857 234.234,261.472 234.234,261.472 L231.064,276.765 L223.408,276.255 L223.664,260.325 z M225.615,268.292 L230.629,268.625 L232.704,258.613 C232.704,258.613 244.194,260.511 243.535,255.631 C242.818,250.313 217.783,249.61 215.205,251.06 C212.627,252.51 212.812,255.248 217.343,256.423 C221.87,257.601 225.782,257.862 225.782,257.862 L225.615,268.292 z" fill="#FFFFFF"/>
    <path d="M67.279,255.167 C67.279,255.167 66.357,256.075 59.715,258.712 C53.073,261.349 49.009,255.385 50.879,251.272 C52.749,247.159 76.789,231.338 82.962,236.729 C91.563,244.24 76.484,249.848 76.484,249.848 L82.962,264.058 L76.484,268.171 L67.279,255.167 z M73.561,260.442 L77.803,257.749 L73.561,248.445 C73.561,248.445 83.952,243.189 80.538,239.64 C76.817,235.773 56.205,249.997 54.981,252.69 C53.757,255.383 55.524,257.482 59.874,255.755 C64.223,254.028 67.535,251.928 67.535,251.928 L73.561,260.442 z" fill="#FFFFFF"/>
    <g>
      <path d="M116.119,83.111 L116.119,148.389 L125.592,167.585 L143.292,178.304 L170.964,178.304 L190.158,162.599 L196.86,149.137 L196.86,83.075 z" fill="#FFFFFF"/>
      <path d="M116.119,83.111 L116.119,148.389 L125.592,167.585 L143.292,178.304 L170.964,178.304 L190.158,162.599 L196.86,149.137 L196.86,83.075 z" fill-opacity="0" stroke="#000000" stroke-width="2" stroke-miterlimit="10"/>
    </g>
    <path d="M163.836,124.308 L169.965,121.669 L170.262,111.742 L161.991,103.472 L158.373,116.728 z" fill="#000000"/>
    <g>
      <path d="M117.865,116.544 C117.865,116.544 106.646,121.78 107.644,102.834 C107.644,102.834 105.65,89.806 119.361,96.786" fill="#FFFFFF"/>
      <path d="M117.865,116.544 C117.865,116.544 106.646,121.78 107.644,102.834 C107.644,102.834 105.65,89.806 119.361,96.786" fill-opacity="0" stroke="#000000" stroke-width="2" stroke-miterlimit="10"/>
    </g>
    <g>
      <path d="M159.495,96.786 L165.23,110.542 L165.232,124.208 L159.495,127.449 L152.516,124.706" fill="#FFFFFF"/>
      <path d="M159.495,96.786 L165.23,110.542 L165.232,124.208 L159.495,127.449 L152.516,124.706" fill-opacity="0" stroke="#000000" stroke-width="2" stroke-miterlimit="10"/>
    </g>
    <g>
      <path d="M150.762,110.542 L145.535,113.716 L145.535,122.169 L148.149,123.46" fill="#FFFFFF"/>
      <path d="M150.762,110.542 L145.535,113.716 L145.535,122.169 L148.149,123.46" fill-opacity="0" stroke="#000000" stroke-width="2" stroke-miterlimit="10"/>
    </g>
    <g>
      <path d="M195.898,93.81 C195.898,93.81 201.575,91.894 202.572,96.88 C204.148,104.76 203.2,104.819 202.572,109.843 C202.572,109.843 199.581,118.526 194.595,116.054" fill="#FFFFFF"/>
      <path d="M195.898,93.81 C195.898,93.81 201.575,91.894 202.572,96.88 C204.148,104.76 203.2,104.819 202.572,109.843 C202.572,109.843 199.581,118.526 194.595,116.054" fill-opacity="0" stroke="#000000" stroke-width="2" stroke-miterlimit="10"/>
    </g>
    <path d="M147.649,126.949 L123.423,130.19 L119.955,157.512 L125.092,167.085 L142.792,177.804 L170.464,177.804 L189.658,162.099 L192.151,157.091 L188.757,130.19 L164.917,126.949 L185.047,132.245 L185.022,158.609 L172.7,166.342 L163.732,163.606 L160.242,146.892 L153.76,146.892 L150.262,163.594 L140.299,167.333 L126.334,160.597 L126.423,131.911 z" fill="#000000"/>
    <path d="M149.275,146.894 L165.417,146.894" fill-opacity="0" stroke="#000000" stroke-width="2" stroke-miterlimit="10"/>
    <path d="M145.535,138.667 C145.535,138.667 155.263,135.896 161.496,138.14 C167.728,140.384 168.719,137.669 168.719,137.669" fill-opacity="0" stroke="#000000" stroke-width="2" stroke-miterlimit="10"/>
    <g>
      <path d="M118.934,154.093 L104.029,168.083 L88.698,205.476 L91.689,230.53 L101.785,222.677 L109.638,209.589 L119.36,207.345 L148.149,226.416 L113.451,181.918 L118.934,154.093" fill="#FFFFFF"/>
      <path d="M118.934,154.093 L104.029,168.083 L88.698,205.476 L91.689,230.53 L101.785,222.677 L109.638,209.589 L119.36,207.345 L148.149,226.416 L113.451,181.918 L118.934,154.093" fill-opacity="0" stroke="#000000" stroke-width="2" stroke-miterlimit="10"/>
    </g>
    <path d="M57.984,252.691 C57.984,252.691 34.8,215.297 52.001,188.748 C52.001,188.748 57.049,181.269 66.762,179.393 C66.762,179.393 72.738,177.905 70.502,180.897 C68.267,183.887 60.601,209.128 81.354,240.913 C81.355,240.911 63.219,252.503 57.984,252.691 z" fill="#000000"/>
    <path d="M56.039,253.587 C56.039,253.587 32.855,216.194 50.056,189.645 C50.056,189.645 55.104,182.166 64.817,180.289 C64.817,180.289 70.793,178.801 68.557,181.793 C66.322,184.784 58.656,210.025 79.409,241.809 C79.41,241.808 61.274,253.401 56.039,253.587 z" fill="#FFFFFF"/>
    <path d="M220.124,253.438 C220.124,253.438 226.94,202.291 250.206,183.117 C250.206,183.117 265.495,183.117 269.671,194.353 C269.671,194.353 244.905,234.367 244.905,256.18 C244.905,256.18 234.333,257.925 220.124,253.438 z" fill="#000000"/>
    <path d="M217.579,253.587 C217.579,253.587 224.395,202.441 247.661,183.267 C247.661,183.267 262.95,183.267 267.127,194.503 C267.127,194.503 242.36,234.517 242.36,256.329 C242.36,256.329 231.788,258.074 217.579,253.587 z" fill="#FFFFFF"/>
    <g>
      <path d="M88.884,265.989 C88.884,270.945 84.866,274.963 79.91,274.963 C74.954,274.963 70.936,270.945 70.936,265.989 C70.936,261.033 74.954,257.015 79.91,257.015 C84.866,257.015 88.884,261.033 88.884,265.989 z" fill="#FFFFFF"/>
      <path d="M88.884,265.989 C88.884,270.945 84.866,274.963 79.91,274.963 C74.954,274.963 70.936,270.945 70.936,265.989 C70.936,261.033 74.954,257.015 79.91,257.015 C84.866,257.015 88.884,261.033 88.884,265.989 z" fill-opacity="0" stroke="#000000" stroke-width="1" stroke-miterlimit="10"/>
    </g>
    <g>
      <path d="M236.41,277.646 C236.41,282.602 232.392,286.62 227.436,286.62 C222.48,286.62 218.462,282.602 218.462,277.646 C218.462,272.69 222.48,268.672 227.436,268.672 C232.392,268.672 236.41,272.69 236.41,277.646 z" fill="#FFFFFF"/>
      <path d="M236.41,277.646 C236.41,282.602 232.392,286.62 227.436,286.62 C222.48,286.62 218.462,282.602 218.462,277.646 C218.462,272.69 222.48,268.672 227.436,268.672 C232.392,268.672 236.41,272.69 236.41,277.646 z" fill-opacity="0" stroke="#000000" stroke-width="1" stroke-miterlimit="10"/>
    </g>
    <path d="M144.198,269.179 C144.198,269.179 143.666,239.13 149.275,226.79" fill-opacity="0" stroke="#FFFFFF" stroke-width="2" stroke-miterlimit="10"/>
    <g>
      <path d="M206.874,86.873 C205.339,81.591 200.873,82.87 200.873,82.87 C201.046,67.478 198.352,52.432 198.352,52.432 C194.786,37.124 176.871,27.122 176.871,27.122 C174.783,22.687 169.477,24.688 169.477,24.688 L160.084,23.556 L158.692,21.818 L156.102,21.818 L154.215,21.818 L151.625,21.818 L150.234,23.556 L140.841,24.688 C140.841,24.688 135.535,22.687 133.447,27.122 C133.447,27.122 115.532,37.124 111.966,52.432 C111.966,52.432 109.271,67.478 109.444,82.87 C109.444,82.87 104.978,81.591 103.444,86.873 C102.294,90.832 108.543,95.604 111.741,97.742 C112.336,98.138 112.818,98.441 113.134,98.635 L113.096,98.657 C113.096,98.657 113.138,98.667 113.217,98.685 C113.417,98.806 113.531,98.873 113.531,98.873 L113.701,98.873 L114.056,98.873 C120.326,100.237 156.514,107.324 196.79,98.996 L196.585,98.873 L196.615,98.873 L196.786,98.873 C196.786,98.873 197.511,98.454 198.576,97.742 C201.775,95.605 208.024,90.832 206.874,86.873 z" fill="#000000"/>
      <path d="M206.874,86.873 C205.339,81.591 200.873,82.87 200.873,82.87 C201.046,67.478 198.352,52.432 198.352,52.432 C194.786,37.124 176.871,27.122 176.871,27.122 C174.783,22.687 169.477,24.688 169.477,24.688 L160.084,23.556 L158.692,21.818 L156.102,21.818 L154.215,21.818 L151.625,21.818 L150.234,23.556 L140.841,24.688 C140.841,24.688 135.535,22.687 133.447,27.122 C133.447,27.122 115.532,37.124 111.966,52.432 C111.966,52.432 109.271,67.478 109.444,82.87 C109.444,82.87 104.978,81.591 103.444,86.873 C102.294,90.832 108.543,95.604 111.741,97.742 C112.336,98.138 112.818,98.441 113.134,98.635 L113.096,98.657 C113.096,98.657 113.138,98.667 113.217,98.685 C113.417,98.806 113.531,98.873 113.531,98.873 L113.701,98.873 L114.056,98.873 C120.326,100.237 156.514,107.324 196.79,98.996 L196.585,98.873 L196.615,98.873 L196.786,98.873 C196.786,98.873 197.511,98.454 198.576,97.742 C201.775,95.605 208.024,90.832 206.874,86.873 z" fill-opacity="0" stroke="#FFFFFF" stroke-width="2" stroke-miterlimit="10"/>
    </g>
    <g>
      <path d="M196.699,74.091 L202.788,74.091 L202.788,85.57 L196.699,85.57 z" fill="#FFFFFF"/>
      <path d="M196.699,74.091 L202.788,74.091 L202.788,85.57 L196.699,85.57 z" fill-opacity="0" stroke="#000000" stroke-width="2" stroke-miterlimit="10"/>
    </g>
    <g>
      <path d="M107.006,74.091 L113.096,74.091 L113.096,85.57 L107.006,85.57 z" fill="#FFFFFF"/>
      <path d="M107.006,74.091 L113.096,74.091 L113.096,85.57 L107.006,85.57 z" fill-opacity="0" stroke="#000000" stroke-width="2" stroke-miterlimit="10"/>
    </g>
    <path d="M113.535,84.165 C113.535,84.165 164.379,90.853 196.783,84.165" fill-opacity="0" stroke="#FFFFFF" stroke-width="1" stroke-miterlimit="10"/>
  </g>
  <defs/>
</svg>
