<?xml version="1.0" encoding="utf-8"?>
<!-- Generator: Adobe Illustrator 16.0.0, SVG Export Plug-In . SVG Version: 6.00 Build 0)  -->
<!DOCTYPE svg PUBLIC "-//W3C//DTD SVG 1.1//EN" "http://www.w3.org/Graphics/SVG/1.1/DTD/svg11.dtd">
<svg version="1.1" id="Capa_1" xmlns="http://www.w3.org/2000/svg" xmlns:xlink="http://www.w3.org/1999/xlink" x="0px" y="0px"
	 width="60px" height="60px" viewBox="0 0 60 60" enable-background="new 0 0 60 60" xml:space="preserve">
<g id="twitter">
	<g>
		<path fill="#FFFFFF" d="M58.703,12.27c-1.594,2.407-3.562,4.453-5.906,6.142c0.031,0.438,0.049,0.938,0.049,1.5
			c0,3.187-0.463,6.366-1.383,9.539c-0.922,3.172-2.338,6.201-4.242,9.094c-1.906,2.891-4.174,5.461-6.799,7.71
			s-5.771,4.039-9.445,5.367c-3.668,1.328-7.617,1.993-11.833,1.993c-6.562,0-12.61-1.768-18.142-5.299
			c0.969,0.095,1.906,0.143,2.813,0.143c5.5,0,10.406-1.688,14.718-5.062c-2.562-0.062-4.851-0.854-6.867-2.391
			c-2.016-1.531-3.414-3.482-4.195-5.859c0.75,0.156,1.5,0.234,2.25,0.234c1.062,0,2.094-0.141,3.094-0.422
			c-2.719-0.531-4.977-1.882-6.773-4.057c-1.797-2.17-2.694-4.678-2.694-7.521v-0.188C5,24.13,6.781,24.63,8.688,24.692
			c-1.625-1.062-2.905-2.461-3.844-4.195c-0.939-1.734-1.406-3.617-1.406-5.647c0-2.126,0.531-4.11,1.595-5.955
			c2.967,3.656,6.562,6.572,10.78,8.743c4.218,2.172,8.75,3.383,13.595,3.633c-0.188-0.875-0.281-1.781-0.281-2.719
			c0-3.25,1.156-6.031,3.471-8.344c2.312-2.312,5.092-3.469,8.344-3.469c3.438,0,6.328,1.25,8.672,3.748
			c2.654-0.528,5.156-1.5,7.5-2.905c-0.904,2.844-2.643,5.032-5.201,6.562c2.375-0.282,4.645-0.892,6.799-1.829V12.27H58.703z"/>
	</g>
</g>
</svg>
